<svg width="14" height="14" viewBox="0 0 14 14" fill="none" xmlns="http://www.w3.org/2000/svg">
<path fill-rule="evenodd" clip-rule="evenodd" d="M4.24219 1.52344C2.89599 1.52344 1.80469 2.61474 1.80469 3.96094V9.96094C1.80469 11.3071 2.89599 12.3984 4.24219 12.3984H10.2422C11.5884 12.3984 12.6797 11.3071 12.6797 9.96094V3.96094C12.6797 2.61474 11.5884 1.52344 10.2422 1.52344H4.24219ZM0.679688 3.96094C0.679688 1.99342 2.27467 0.398438 4.24219 0.398438H10.2422C12.2097 0.398438 13.8047 1.99342 13.8047 3.96094V9.96094C13.8047 11.9285 12.2097 13.5234 10.2422 13.5234H4.24219C2.27467 13.5234 0.679688 11.9285 0.679688 9.96094V3.96094ZM7.24219 5.27344C6.31021 5.27344 5.55469 6.02896 5.55469 6.96094C5.55469 7.89292 6.31021 8.64844 7.24219 8.64844C8.17417 8.64844 8.92969 7.89292 8.92969 6.96094C8.92969 6.02896 8.17417 5.27344 7.24219 5.27344ZM4.42969 6.96094C4.42969 5.40764 5.68889 4.14844 7.24219 4.14844C8.79549 4.14844 10.0547 5.40764 10.0547 6.96094C10.0547 8.51424 8.79549 9.77344 7.24219 9.77344C5.68889 9.77344 4.42969 8.51424 4.42969 6.96094ZM11.1797 3.58594C11.1797 3.27528 10.9278 3.02344 10.6172 3.02344C10.3065 3.02344 10.0547 3.27528 10.0547 3.58594V3.58694C10.0547 3.8976 10.3065 4.14944 10.6172 4.14944C10.9278 4.14944 11.1797 3.8976 11.1797 3.58694V3.58594Z" fill="#282828"/>
</svg>
